<svg width="22" height="22" viewBox="0 0 22 22"
    xmlns="http://www.w3.org/2000/svg" className="w-6 fill-light opacity-25">
    <title>Library</title>
    <path d="M15.5833 4.35417H14.6667V2.98833C14.6667 2.2275 14.0433 1.60417 13.2825 1.60417H8.7175C7.95667 1.60417 7.33333 2.2275 7.33333 2.98833V4.35417H6.41667C5.40833 4.35417 4.58333 5.17917 4.58333 6.1875V6.30667C4.87667 6.22417 5.17917 6.1875 5.5 6.1875H16.5C16.8208 6.1875 17.1233 6.22417 17.4167 6.30667V6.1875C17.4167 5.17917 16.5917 4.35417 15.5833 4.35417Z" />
    <path d="M12.7692 15.5192C12.4758 15.5192 12.2467 15.7575 12.2467 16.0417C12.2467 16.3258 12.485 16.5642 12.7692 16.5642C13.0533 16.5642 13.2917 16.3258 13.2917 16.0417C13.2917 15.7575 13.0533 15.5192 12.7692 15.5192Z" />
    <path d="M8.31417 16.3258C8.02083 16.3258 7.79167 16.5642 7.79167 16.8483C7.79167 17.1325 8.03 17.3708 8.31417 17.3708C8.59833 17.3708 8.83667 17.1325 8.83667 16.8483C8.83667 16.5642 8.6075 16.3258 8.31417 16.3258Z" />
    <path d="M17.4167 7.68167C17.1233 7.59917 16.8208 7.5625 16.5 7.5625H5.5C5.17917 7.5625 4.87667 7.59917 4.58333 7.68167C3.00667 8.09417 1.83333 9.53333 1.83333 11.2292V16.7292C1.83333 18.7458 3.48333 20.3958 5.5 20.3958H16.5C18.5167 20.3958 20.1667 18.7458 20.1667 16.7292V11.2292C20.1667 9.53333 18.9933 8.09417 17.4167 7.68167ZM14.6667 16.0417C14.6667 17.0867 13.8142 17.9392 12.7692 17.9392C11.7242 17.9392 10.8717 17.0867 10.8717 16.0417C10.8717 14.9967 11.7242 14.1442 12.7692 14.1442C12.9525 14.1442 13.1267 14.1808 13.2917 14.2267V13.0717L10.2208 13.9058V16.8483C10.2208 16.8575 10.2208 16.8667 10.2117 16.8758C10.2025 17.9117 9.35 18.755 8.31417 18.755C7.26917 18.755 6.41667 17.9025 6.41667 16.8483C6.41667 15.7942 7.26917 14.9508 8.31417 14.9508C8.4975 14.9508 8.67167 14.9875 8.84583 15.0333V11.9625C8.84583 11.1742 9.34083 10.5325 10.0925 10.3308L12.5217 9.66167C13.3008 9.45083 13.7958 9.6525 14.0708 9.86333C14.3458 10.0742 14.6667 10.4867 14.6667 11.3025V16.0417Z" />
</svg>