<svg width="16" height="17" viewBox="0 0 16 17" fill="none" xmlns="http://www.w3.org/2000/svg">
<path d="M2.60667 12.226C2.48 12.226 2.35333 12.1793 2.25333 12.0793C1.34 11.1593 0.833333 9.94597 0.833333 8.6593C0.833333 5.98597 3 3.81264 5.66667 3.81264L9.71333 3.82597L8.98667 3.13264C8.78667 2.9393 8.78 2.62597 8.97333 2.42597C9.16667 2.22597 9.48 2.2193 9.68 2.41264L11.3067 3.97264C11.4533 4.11264 11.5 4.33264 11.4267 4.5193C11.3533 4.70597 11.1667 4.83264 10.96 4.83264L5.66667 4.8193C3.55333 4.8193 1.83333 6.54597 1.83333 8.66597C1.83333 9.68597 2.23333 10.6526 2.96 11.3793C3.15333 11.5726 3.15333 11.8926 2.96 12.086C2.86 12.1793 2.73333 12.226 2.60667 12.226Z" fill="white"/>
<path d="M6.66667 15.2726C6.54 15.2726 6.42 15.226 6.32 15.1326L4.69333 13.5726C4.54667 13.4326 4.5 13.2126 4.57333 13.026C4.65333 12.8393 4.84 12.7393 5.04 12.7126L10.34 12.726C12.4533 12.726 14.1733 10.9993 14.1733 8.87931C14.1733 7.85931 13.7733 6.89264 13.0467 6.16598C12.8533 5.97264 12.8533 5.65264 13.0467 5.45931C13.24 5.26598 13.56 5.26598 13.7533 5.45931C14.6667 6.37931 15.1733 7.59264 15.1733 8.87931C15.1733 11.5526 13.0067 13.726 10.34 13.726L6.29333 13.7126L7.02 14.406C7.22 14.5993 7.22667 14.9126 7.03333 15.1126C6.92667 15.2193 6.8 15.2726 6.66667 15.2726Z" fill="white"/>
<path d="M8.16667 11.0527C7.89333 11.0527 7.66667 10.826 7.66667 10.5527V8.29265L7.54 8.43265C7.35333 8.63932 7.04 8.65265 6.83333 8.47265C6.62667 8.29265 6.61333 7.97265 6.79333 7.76598L7.79333 6.65265C7.93333 6.49932 8.15333 6.44598 8.34667 6.51932C8.54 6.59932 8.66667 6.77932 8.66667 6.99265V10.5593C8.66667 10.8326 8.44 11.0527 8.16667 11.0527Z" fill="white"/>
</svg>
