<svg width="16" height="17" viewBox="0 0 16 17" fill="none" xmlns="http://www.w3.org/2000/svg">
<path d="M14.5 12.7593C14.5 12.746 14.4933 12.7327 14.4933 12.7193C14.4867 12.666 14.48 12.6127 14.46 12.566C14.4333 12.506 14.4 12.4593 14.36 12.4127C14.36 12.4127 14.36 12.406 14.3533 12.406C14.3067 12.3593 14.2533 12.326 14.1933 12.2993C14.1333 12.2727 14.0667 12.2593 14 12.2593L10.8867 12.2727C10.8867 12.2727 10.8867 12.2727 10.88 12.2727C10.48 12.2727 10.0933 12.086 9.85332 11.766L9.03999 10.7193C8.87332 10.4993 8.55998 10.4593 8.33998 10.6327C8.11998 10.806 8.07999 11.1127 8.25332 11.3327L9.06665 12.3793C9.49999 12.9393 10.18 13.2727 10.8867 13.2727H10.8933L12.7933 13.266L12.32 13.7393C12.1267 13.9327 12.1267 14.2527 12.32 14.446C12.42 14.546 12.5467 14.5927 12.6733 14.5927C12.8 14.5927 12.9267 14.546 13.0267 14.446L14.36 13.1127C14.4067 13.066 14.44 13.0127 14.4667 12.9527C14.4867 12.886 14.5 12.8193 14.5 12.7593Z" fill="white"/>
<path d="M5.61333 5.23265C5.18 4.63265 4.48667 4.27932 3.74667 4.27932C3.74 4.27932 3.74 4.27932 3.73333 4.27932L2 4.28598C1.72667 4.28598 1.5 4.51265 1.5 4.78598C1.5 5.05932 1.72667 5.28598 2 5.28598L3.74 5.27932H3.74667C4.16667 5.27932 4.56 5.47932 4.8 5.81932L5.52 6.81932C5.62 6.95265 5.77333 7.02598 5.92667 7.02598C6.02667 7.02598 6.13333 6.99265 6.22 6.93265C6.44667 6.76598 6.49333 6.45265 6.33333 6.23265L5.61333 5.23265Z" fill="white"/>
<path d="M14.4933 4.82598C14.4933 4.81264 14.5 4.79931 14.5 4.79264C14.5 4.72598 14.4867 4.65931 14.46 4.59931C14.4333 4.53931 14.4 4.48598 14.3533 4.43931L13.02 3.10598C12.8267 2.91264 12.5067 2.91264 12.3133 3.10598C12.12 3.29931 12.12 3.61931 12.3133 3.81264L12.7867 4.28598L10.9667 4.27931C10.96 4.27931 10.96 4.27931 10.9533 4.27931C10.1867 4.27931 9.46667 4.65931 9.04 5.30598L4.78 11.6926C4.54 12.0526 4.13333 12.2726 3.7 12.2726H3.69333L2 12.2593C1.72667 12.2593 1.5 12.4793 1.5 12.7593C1.5 13.0326 1.72 13.2593 2 13.2593L3.7 13.266C3.70667 13.266 3.70667 13.266 3.71333 13.266C4.48667 13.266 5.2 12.886 5.62667 12.2393L9.88667 5.85264C10.1267 5.49264 10.5333 5.27264 10.9667 5.27264H10.9733L14 5.28598C14.0667 5.28598 14.1267 5.27264 14.1933 5.24598C14.2533 5.21931 14.3067 5.18598 14.3533 5.13931C14.3533 5.13931 14.3533 5.13264 14.36 5.13264C14.4 5.08598 14.44 5.03931 14.46 4.97931C14.48 4.93264 14.4867 4.87931 14.4933 4.82598Z" fill="white"/>
</svg>
